<svg version="1.1" xmlns="http://www.w3.org/2000/svg" viewBox="-182.27199096679686 -1067.0080444335938 10843.136328125 3407.616128540039"><desc>Created with Snap</desc><defs></defs><g><g transform="matrix(57.3696,0,0,57.3696,4321.3825,254.9504)"><g transform="translate(0,-1020.3622)"><path style="color: rgb(0, 0, 0); font-style: normal; font-variant: normal; font-weight: normal; font-stretch: normal; font-size: medium; line-height: normal; font-family: sans-serif; text-indent: 0px; text-align: start; text-decoration: rgb(0, 0, 0); letter-spacing: normal; word-spacing: normal; text-transform: none; direction: ltr; writing-mode: horizontal-tb; text-anchor: start; white-space: normal; clip-rule: nonzero; display: inline; overflow: visible; visibility: visible; opacity: 1; isolation: auto; mix-blend-mode: normal; color-interpolation: srgb; color-interpolation-filters: linearrgb; fill-opacity: 1; fill-rule: evenodd; stroke: none; stroke-width: 1px; stroke-linecap: butt; stroke-linejoin: miter; stroke-miterlimit: 4; stroke-dasharray: none; stroke-dashoffset: 0px; stroke-opacity: 1; image-rendering: auto; shape-rendering: auto; text-rendering: auto;" d="M 15 1 C 12.796783 1 11 2.7968 11 5 C 11 5.6546295 11.174294 6.2621942 11.455078 6.8085938 L 5.1347656 12.226562 C 4.7841998 12.082202 4.4012682 12 4 12 C 2.3490681 12 1 13.3491 1 15 C 1 16.651 2.3490681 18 4 18 C 4.3223201 18 4.6284069 17.934891 4.9199219 17.839844 L 10.457031 27.068359 C 10.170848 27.474845 10 27.968062 10 28.5 C 10 29.8748 11.12521 31 12.5 31 C 13.747095 31 14.780132 30.071238 14.962891 28.873047 L 25.037109 25.515625 C 25.449884 25.816605 25.953124 26 26.5 26 C 27.87479 26 29 24.8748 29 23.5 C 29 22.943704 28.810453 22.432176 28.5 22.015625 L 29.455078 9.6035156 C 30.370789 9.0885994 31 8.1207185 31 7 C 31 5.3491 29.650932 4 28 4 C 27.134284 4 26.357302 4.3758715 25.808594 4.9667969 L 18.839844 3.9453125 C 18.372859 2.2544815 16.835947 1 15 1 z M 15 2 C 16.662777 2 18 3.3373 18 5 C 18 6.6628 16.662777 8 15 8 C 13.337223 8 12 6.6628 12 5 C 12 3.3373 13.337223 2 15 2 z M 18.998047 4.9785156 L 25.21875 5.8925781 C 25.081111 6.2360264 25 6.6086946 25 7 C 25 7.9000535 25.408807 8.7010389 26.041016 9.2519531 L 19.875 15.417969 C 19.479439 15.155095 19.007772 15 18.5 15 C 17.509241 15 16.655742 15.588652 16.251953 16.429688 L 6.9414062 15.583984 C 6.9792633 15.39441 7 15.200338 7 15 C 7 14.124925 6.6138374 13.342483 6.0117188 12.792969 L 12.021484 7.640625 C 12.755152 8.4670166 13.812384 9 15 9 C 17.203217 9 19 7.2032 19 5 C 19 4.9926553 18.998087 4.9858513 18.998047 4.9785156 z M 28 5 C 29.110492 5 30 5.8895 30 7 C 30 8.1105 29.110492 9 28 9 C 26.889508 9 26 8.1105 26 7 C 26 5.8895 26.889508 5 28 5 z M 26.917969 9.7890625 C 27.254532 9.9204133 27.618193 10 28 10 C 28.145621 10 28.285576 9.9753505 28.425781 9.9550781 L 27.556641 21.244141 C 27.234205 21.091786 26.878567 21 26.5 21 C 25.967136 21 25.475247 21.171889 25.068359 21.458984 L 20.626953 18.792969 C 20.859124 18.413878 21 17.974607 21 17.5 C 21 16.992527 20.846572 16.518465 20.583984 16.123047 L 26.917969 9.7890625 z M 4 13 C 5.1104918 13 6 13.8895 6 15 C 6 16.1105 5.1104918 17 4 17 C 2.8895082 17 2 16.1105 2 15 C 2 13.8895 2.8895082 13 4 13 z M 18.5 16 C 19.334349 16 20 16.6657 20 17.5 C 20 18.3344 19.334349 19 18.5 19 C 17.665651 19 17 18.3344 17 17.5 C 17 16.6657 17.665651 16 18.5 16 z M 6.5527344 16.552734 L 16.009766 17.412109 C 16.008703 17.441867 16 17.469995 16 17.5 C 16 18.8748 17.12521 20 18.5 20 C 19.031925 20 19.523206 19.827189 19.929688 19.541016 L 24.371094 22.207031 C 24.13977 22.585631 24 23.026333 24 23.5 C 24 23.937372 24.122695 24.342517 24.322266 24.701172 L 14.900391 27.841797 C 14.608509 26.785121 13.646095 26 12.5 26 C 12.025542 26 11.586046 26.141008 11.207031 26.373047 L 5.8085938 17.375 C 6.1047653 17.148637 6.3574473 16.871712 6.5527344 16.552734 z M 26.5 22 C 27.334349 22 28 22.6657 28 23.5 C 28 24.3344 27.334349 25 26.5 25 C 25.665651 25 25 24.3344 25 23.5 C 25 22.6657 25.665651 22 26.5 22 z M 12.5 27 C 13.334349 27 14 27.6657 14 28.5 C 14 29.3344 13.334349 30 12.5 30 C 11.665651 30 11 29.3344 11 28.5 C 11 27.6657 11.665651 27 12.5 27 z " transform="translate(0,1020.3622)" fill="#00e6cf"></path></g><desc>Created with Snap</desc><defs></defs></g><g><g transform="matrix(1.024,0,0,-1.024,0,0)"><path d="M538 361Q613 347 652 302Q692 257 692 185Q692 96 627 48Q562 0 434 0L122 0L122 700L414 700Q528 700 591 653Q655 607 655 521Q655 461 623 420Q592 379 538 361ZM412 656L173 656L173 377L412 377Q504 377 553 412Q603 448 603 517Q603 585 553 620Q504 656 412 656ZM434 44Q536 44 588 79Q641 115 641 189Q641 263 588 298Q536 333 434 333L173 333L173 44L434 44ZM1300 263L1299 249L850 249Q852 188 881 140Q910 93 959 67Q1009 41 1071 41Q1122 41 1165 59Q1209 78 1238 114L1267 81Q1233 40 1181 18Q1130 -4 1070 -4Q992 -4 931 30Q870 64 835 124Q801 184 801 261Q801 337 833 397Q866 458 923 492Q980 526 1051 526Q1122 526 1178 492Q1235 459 1267 399Q1300 339 1300 263ZM1051 482Q996 482 952 457Q908 433 881 388Q855 344 851 288L1251 288Q1248 344 1221 388Q1194 432 1150 457Q1106 482 1051 482ZM1710 526Q1808 526 1865 469Q1922 412 1922 305L1922 0L1872 0L1872 301Q1872 389 1827 435Q1783 481 1703 481Q1611 481 1558 426Q1505 371 1505 278L1505 0L1455 0L1455 522L1503 522L1503 409Q1530 464 1583 495Q1637 526 1710 526ZM2260 -4Q2197 -4 2140 15Q2083 34 2051 63L2074 103Q2106 76 2156 58Q2207 40 2262 40Q2341 40 2378 66Q2416 92 2416 138Q2416 171 2395 190Q2375 209 2345 218Q2315 227 2262 237Q2200 248 2162 261Q2124 274 2097 303Q2070 332 2070 383Q2070 445 2121 485Q2173 526 2268 526Q2318 526 2367 512Q2416 498 2447 475L2424 435Q2392 458 2351 470Q2310 482 2267 482Q2194 482 2157 455Q2120 428 2120 384Q2120 349 2141 329Q2162 310 2192 300Q2223 291 2278 280Q2339 269 2376 256Q2414 244 2440 216Q2466 188 2466 139Q2466 74 2412 35Q2358 -4 2260 -4ZM3063 -5Q2986 -5 2916 21Q2847 48 2808 90L2831 128Q2868 89 2930 64Q2993 40 3062 40Q3162 40 3213 78Q3264 116 3264 177Q3264 224 3237 252Q3210 280 3170 295Q3130 310 3062 326Q2985 345 2938 363Q2892 381 2859 418Q2827 456 2827 519Q2827 570 2854 612Q2881 655 2936 680Q2992 705 3075 705Q3133 705 3189 688Q3245 671 3286 642L3267 601Q3225 630 3174 645Q3124 660 3075 660Q2978 660 2928 621Q2878 582 2878 520Q2878 473 2905 445Q2932 417 2972 402Q3012 387 3081 370Q3158 351 3204 333Q3250 315 3282 278Q3315 242 3315 180Q3315 129 3287 87Q3260 45 3203 20Q3146 -5 3063 -5ZM3727 526Q3825 526 3882 469Q3939 412 3939 305L3939 0L3889 0L3889 301Q3889 389 3844 435Q3800 481 3720 481Q3628 481 3575 426Q3522 371 3522 278L3522 0L3472 0L3472 742L3522 742L3522 413Q3549 467 3602 496Q3655 526 3727 526ZM4552 522L4602 522L4602 0L4554 0L4554 112Q4528 57 4477 26Q4426 -4 4357 -4Q4255 -4 4197 53Q4139 110 4139 217L4139 522L4189 522L4189 221Q4189 133 4234 87Q4279 41 4361 41Q4449 41 4500 96Q4552 151 4552 244L4552 522ZM5052 68L5073 33Q5054 15 5025 5Q4997 -4 4966 -4Q4898 -4 4861 33Q4824 71 4824 138L4824 479L4728 479L4728 522L4824 522L4824 636L4874 636L4874 522L5040 522L5040 479L4874 479L4874 143Q4874 92 4898 65Q4923 39 4971 39Q5020 39 5052 68ZM5450 68L5471 33Q5452 15 5423 5Q5395 -4 5364 -4Q5296 -4 5259 33Q5222 71 5222 138L5222 479L5126 479L5126 522L5222 522L5222 636L5272 636L5272 522L5438 522L5438 479L5272 479L5272 143Q5272 92 5296 65Q5321 39 5369 39Q5418 39 5450 68ZM5610 0L5610 742L5660 742L5660 0L5610 0ZM6313 263L6312 249L5863 249Q5865 188 5894 140Q5923 93 5972 67Q6022 41 6084 41Q6135 41 6178 59Q6222 78 6251 114L6280 81Q6246 40 6194 18Q6143 -4 6083 -4Q6005 -4 5944 30Q5883 64 5848 124Q5814 184 5814 261Q5814 337 5846 397Q5879 458 5936 492Q5993 526 6064 526Q6135 526 6191 492Q6248 459 6280 399Q6313 339 6313 263ZM6064 482Q6009 482 5965 457Q5921 433 5894 388Q5868 344 5864 288L6264 288Q6261 344 6234 388Q6207 432 6163 457Q6119 482 6064 482ZM6925 -5Q6848 -5 6778 21Q6709 48 6670 90L6693 128Q6730 89 6792 64Q6855 40 6924 40Q7024 40 7075 78Q7126 116 7126 177Q7126 224 7099 252Q7072 280 7032 295Q6992 310 6924 326Q6847 345 6800 363Q6754 381 6721 418Q6689 456 6689 519Q6689 570 6716 612Q6743 655 6798 680Q6854 705 6937 705Q6995 705 7051 688Q7107 671 7148 642L7129 601Q7087 630 7036 645Q6986 660 6937 660Q6840 660 6790 621Q6740 582 6740 520Q6740 473 6767 445Q6794 417 6834 402Q6874 387 6943 370Q7020 351 7066 333Q7112 315 7144 278Q7177 242 7177 180Q7177 129 7149 87Q7122 45 7065 20Q7008 -5 6925 -5ZM7776 263L7775 249L7326 249Q7328 188 7357 140Q7386 93 7435 67Q7485 41 7547 41Q7598 41 7641 59Q7685 78 7714 114L7743 81Q7709 40 7657 18Q7606 -4 7546 -4Q7468 -4 7407 30Q7346 64 7311 124Q7277 184 7277 261Q7277 337 7309 397Q7342 458 7399 492Q7456 526 7527 526Q7598 526 7654 492Q7711 459 7743 399Q7776 339 7776 263ZM7527 482Q7472 482 7428 457Q7384 433 7357 388Q7331 344 7327 288L7727 288Q7724 344 7697 388Q7670 432 7626 457Q7582 482 7527 482ZM7979 408Q8003 465 8054 495Q8105 526 8178 526L8178 477L8166 478Q8079 478 8030 423Q7981 369 7981 272L7981 0L7931 0L7931 522L7979 522L7979 408ZM8693 522L8744 522L8508 0L8457 0L8222 522L8275 522L8483 55L8693 522ZM8853 0L8853 522L8903 522L8903 0L8853 0ZM8878 649Q8861 649 8849 660Q8837 672 8837 689Q8837 706 8849 718Q8861 730 8878 730Q8895 730 8907 718Q8919 707 8919 690Q8919 673 8907 661Q8895 649 8878 649ZM9321 -4Q9245 -4 9185 30Q9125 64 9091 124Q9057 185 9057 261Q9057 338 9091 398Q9125 459 9185 492Q9245 526 9321 526Q9384 526 9435 501Q9487 477 9519 430L9482 403Q9454 442 9412 461Q9371 481 9321 481Q9260 481 9211 453Q9163 426 9135 376Q9108 326 9108 261Q9108 196 9135 146Q9163 96 9211 68Q9260 41 9321 41Q9371 41 9412 60Q9454 80 9482 119L9519 92Q9487 45 9435 20Q9384 -4 9321 -4ZM10111 263L10110 249L9661 249Q9663 188 9692 140Q9721 93 9770 67Q9820 41 9882 41Q9933 41 9976 59Q10020 78 10049 114L10078 81Q10044 40 9992 18Q9941 -4 9881 -4Q9803 -4 9742 30Q9681 64 9646 124Q9612 184 9612 261Q9612 337 9644 397Q9677 458 9734 492Q9791 526 9862 526Q9933 526 9989 492Q10046 459 10078 399Q10111 339 10111 263ZM9862 482Q9807 482 9763 457Q9719 433 9692 388Q9666 344 9662 288L10062 288Q10059 344 10032 388Q10005 432 9961 457Q9917 482 9862 482Z" style="" fill="#165a3f"></path></g></g></g></svg>